<svg width="409" height="486" viewBox="0 0 409 486" fill="none" xmlns="http://www.w3.org/2000/svg">
<path d="M182.667 5.06695C177.867 7.86695 165.333 15.2003 154.667 21.3336L135.333 32.667L134.933 121.6L134.667 210.534L97.2 210.267L59.8667 209.867V144.534C60 108.534 59.6 78.5336 58.9333 77.6003C58.2667 76.5336 54.8 77.867 47.3333 82.4003C41.4667 85.867 29.7333 92.6669 21.3333 97.6003C12.9333 102.4 4.66667 107.334 3.06667 108.534L0 110.667V241.067V371.6L13.7333 379.6C52.2667 402.134 57.6 405.2 58.8 405.2C59.4667 405.2 60 377.734 60 337.867V270.534H97.3333H134.667V360.134V449.867L163.867 466.8C179.867 476.267 193.467 483.867 193.867 483.867C194.267 483.867 194.667 374.934 194.667 241.867C194.667 49.067 194.267 -0.13306 193.067 0.000272981C192.133 0.000272981 187.467 2.26695 182.667 5.06695Z" fill="url(#paint0_linear_272_6241)"/>
<path d="M216.667 242.8C216.667 376.4 216.933 485.6 217.333 485.6C217.733 485.6 222.667 482.8 228.4 479.467C241.867 471.333 250.933 466.133 264.4 458.4L275.333 452L275.467 429.867C275.6 417.6 275.733 385.2 275.867 358L276 308.267L289.867 300.267C297.467 295.733 304.533 292.267 305.467 292.533C306.4 292.8 316.667 298.667 328.533 305.6L350 318.267V363.333V408.4L355.733 404.933C358.8 403.067 372 395.467 385.067 388L408.667 374.533L408.4 329.2L408 284L386.667 271.6C374.933 264.667 365.2 258.533 365.067 258C364.8 257.333 368.4 254.8 372.933 252.267C377.467 249.733 383.333 246.4 385.867 244.933C388.533 243.467 394.667 239.867 399.733 237.067L408.667 232V171.2V110.267L403.6 107.467C396.4 103.6 340.8 71.4667 307.333 52.0001C268.4 29.4667 236.533 11.0667 225.733 5.06674L216.667 6.10352e-05V242.8ZM287.067 109.467C292 112.267 306.267 120.667 318.667 128C331.2 135.2 343.333 142.267 345.733 143.467L350 145.733L349.733 172.667L349.333 199.467L331.333 210C321.467 215.867 305.867 224.933 296.667 230.4C287.467 235.733 279.067 240.533 278 240.933C276.267 241.6 276 234.133 276.133 178.667C276.133 110.4 276.267 104.267 277.467 104.267C277.867 104.267 282.267 106.667 287.067 109.467Z" fill="url(#paint1_linear_272_6241)"/>
<defs>
<linearGradient id="paint0_linear_272_6241" x1="152" y1="460" x2="23.5" y2="79" gradientUnits="userSpaceOnUse">
<stop offset="0.00961538" stop-color="#2196F3"/>
<stop offset="0.720831" stop-color="#09144C"/>
</linearGradient>
<linearGradient id="paint1_linear_272_6241" x1="234" y1="425.5" x2="234" y2="34.5" gradientUnits="userSpaceOnUse">
<stop offset="0.302885" stop-color="#09144C"/>
<stop offset="0.995192" stop-color="#2196F3"/>
</linearGradient>
</defs>
</svg>
